# xmcd CD database file
# Copyright (C) 1997 Ti Kan
#
# Track frame offsets:
#  150
#  14810
#  30010
#  54827
#  83302
#  105917
#  126230
#  150775
#  168232
#  186605
#
# Disc length: 2741 seconds
#
# Revision: 1
# Processed by: cddbd v1.4b41PL1 Copyright (c) Steve Scherf et al.
# Submitted via: CDWizzard Release:4.24
#
DISCID=630ab30a
DTITLE=Mercury Dime - Baffled Ghosts
DYEAR=1900
DGENRE=
TTITLE0=Saving Dough
TTITLE1=Never Never Boy
TTITLE2=Yellow Room
TTITLE3=Baffled Ghosts
TTITLE4=Shy Ways Into the Limelight
TTITLE5=Jacknife Autograph
TTITLE6=Pleiades Apaloosa
TTITLE7=Oquajane
TTITLE8=X Gate
TTITLE9=Dog Star
EXTD=
EXTT0=
EXTT1=
EXTT2=
EXTT3=
EXTT4=
EXTT5=
EXTT6=
EXTT7=
EXTT8=
EXTT9=
PLAYORDER=
